PathFileType	4	(X/Y/Z)	C:\Users\willi\Desktop\Data_PaperCallum_v2\17_Akif\Gait01\marker_experimental_temp.trc
DataRate	CameraRate	NumFrames	NumMarkers	Units	OrigDataRate	OrigDataStartFrame	OrigNumFrames
100.000000	100.000000	5	27	mm	100.000000	112	180
Frame#	Time	C7			T10			Clav			Sternum			Right_Back			PCL_CRAN			PCL_RECHTS			PCL_LINKS			RCL_UL_CRAN			RCL_UL_POST			RCL_UL_ANT			RCL_LL_CRAN			RCL_LL_POST			RCL_LL_ANT			Right_Heel			Right_Toe			Right_M5			LCL_UL_CRAN			LCL_UL_POST			LCL_UL_ANT			LCL_LL_CRAN			LCL_LL_POST			LCL_LL_ANT			Left_Heel			Left_Toe			Left_M5			*26			
		X1	Y1	Z1	X2	Y2	Z2	X3	Y3	Z3	X4	Y4	Z4	X5	Y5	Z5	X6	Y6	Z6	X7	Y7	Z7	X8	Y8	Z8	X9	Y9	Z9	X10	Y10	Z10	X11	Y11	Z11	X12	Y12	Z12	X13	Y13	Z13	X14	Y14	Z14	X15	Y15	Z15	X16	Y16	Z16	X17	Y17	Z17	X18	Y18	Z18	X19	Y19	Z19	X20	Y20	Z20	X21	Y21	Z21	X22	Y22	Z22	X23	Y23	Z23	X24	Y24	Z24	X25	Y25	Z25	X26	Y26	Z26	X27	Y27	Z27	

113	1.12	12.5538606643676	1374.33056640625	194.9935302734375	52.33509445190424	1158.9404296875	197.4076080322266	-130.0392150878907	1297.716796875	194.4480895996094	-183.8221130371094	1132.85302734375	216.0597534179688	52.50993728637688	1308.4033203125	88.91739654541016	39.9148445129394	986.3718872070313	178.3210754394531	45.74356842041011	927.4428100585938	152.9957275390625	52.51557922363277	926.1546020507813	203.0495758056641	-149.3682556152344	702.65673828125	18.15673637390138	-151.1007080078125	637.6279907226563	19.25130462646485	-197.2908630371094	659.357421875	19.45863723754884	-251.1446685791016	368.2515258789063	51.38619613647462	-251.2138671875	304.0785827636719	44.54452133178712	-298.4395446777344	322.2919616699219	52.17593002319338	-334.1149291992188	17.47479820251463	127.9910583496094	-505.5317077636719	100.6228332519531	106.5701370239258	-473.8714294433594	66.24742889404294	56.63489532470706	3.881555795669533	731.7168579101563	368.4795837402344	31.77889823913572	673.0526123046875	357.900390625	-16.32943534851076	669.3328857421875	369.7411193847656	153.9013214111328	380.79296875	332.1040344238281	202.5543670654297	336.6000671386719	334.8558654785156	156.5922241210938	315.3979187011719	327.9396362304688	363.4189147949219	89.85496520996097	250.5929870605468	167.8832397460938	29.77967643737794	259.2687683105469	220.4017944335938	12.02961063385011	317.3362426757813	-88.13191223144555	726.4762573242188	-3209.79833984375	
114	1.13	-2.278789997100902	1372.905517578125	192.9743347167969	36.53735351562494	1157.251831054688	195.6310424804688	-145.1945343017579	1296.803955078125	192.8613891601563	-199.7078552246094	1132.223022460938	214.8292388916016	37.21918869018548	1306.520629882813	87.04917144775391	23.30371665954585	985.04931640625	176.8642883300781	29.05323410034175	926.2363891601563	151.1751708984375	35.75512695312496	924.647705078125	201.2218170166016	-167.5220184326172	702.28369140625	17.15966987609864	-170.0091247558594	637.405029296875	18.99678802490235	-215.9422760009766	659.4385375976563	19.58969688415529	-267.052001953125	366.7925720214844	51.23132705688478	-265.176513671875	302.0824279785156	45.24716567993165	-313.1041259765625	319.6466674804688	53.04631805419924	-339.2111511230469	16.16883468627928	128.5672302246094	-513.9647827148438	91.69748687744138	111.9180221557617	-482.2918090820313	58.69596862792966	60.99604415893558	-11.3363723754883	730.642578125	367.3559265136719	16.96487045288084	672.0673828125	356.9942626953125	-31.04388999938967	668.0884399414063	369.1369934082031	142.4682464599609	381.5578918457031	333.2555541992188	192.4019012451172	338.728271484375	335.8606567382813	147.0483856201172	316.2010192871094	328.8294372558594	360.1438293457031	97.09066009521487	252.3903350830078	167.7190246582032	29.56407165527345	259.7113037109375	220.6038208007813	11.95171070098878	317.1830139160156	-88.14040374755884	726.4749145507813	-3209.826416015625	
115	1.14	-17.14006996154793	1371.75341796875	190.9126281738281	20.66413497924799	1155.824340820313	193.8894805908203	-160.382308959961	1296.2041015625	191.2715148925781	-215.7075500488282	1131.938720703125	213.5703887939453	21.84757995605461	1304.891479492188	85.10324859619141	6.628300189971874	984.039794921875	175.5617065429688	12.33330917358394	925.3650512695313	149.4723510742188	18.91670799255366	923.4405517578125	199.5187225341797	-185.5148925781251	702.265869140625	16.10905647277833	-188.5184783935547	637.4662475585938	18.72812843322755	-234.2357940673828	659.6889038085938	19.76976203918458	-282.5932312011719	365.595703125	50.87496566772462	-278.71826171875	300.3659973144531	46.04484176635744	-327.328857421875	317.2304382324219	53.71152496337893	-342.7424011230469	15.7021379470825	128.9576721191407	-521.2379760742188	81.84715270996091	116.5517196655274	-488.9483032226563	50.53320693969724	64.78160095214847	-27.26280593872073	729.5380249023438	366.1459655761719	1.343843698501568	671.0359497070313	356.037353515625	-46.5860176086426	666.8770751953125	368.424072265625	130.0398864746094	382.3465576171875	334.6240234375	181.3074645996094	341.0356750488281	336.9548034667969	136.6911926269531	317.129638671875	329.8233642578125	355.7461242675781	105.1460113525391	254.0212707519531	167.7740478515625	29.21700668334962	260.1360778808594	221.0011138916016	12.06778526306154	316.8723449707031	-88.14923095703149	726.4735107421875	-3209.85546875	
116	1.15	-32.02153778076179	1370.898193359375	188.8220672607422	4.751055717468202	1154.69287109375	192.1876983642578	-175.5864715576173	1295.928955078125	189.6902770996094	-231.7809753417969	1132.004638671875	212.2964019775391	6.410235881805345	1303.548461914063	83.09251403808594	-10.0530281066895	983.36181640625	174.4009552001953	-4.363783359527636	924.8423461914063	147.8856048583984	2.063668012618974	922.5567016601563	197.9378814697266	-203.2000122070313	702.5709228515625	14.94498538970949	-206.41650390625	637.7846069335938	18.29621505737306	-251.988265991211	660.0496215820313	19.81418037414552	-297.8053588867188	364.7628784179688	50.2792663574219	-292.1829833984375	299.2008361816406	46.62795639038088	-341.2885437011719	315.2964782714844	54.07102584838869	-345.3000183105469	16.14391517639158	129.0609893798828	-527.7243041992188	71.71788024902341	120.283073425293	-494.2838439941406	42.27244186401364	67.79031372070315	-43.88009262084963	728.4116821289063	364.8674926757813	-15.09507369995119	669.96337890625	355.0557556152344	-62.97026824951174	665.72216796875	367.6252746582031	116.4533538818359	383.1443481445313	336.2226867675781	169.0897674560547	343.5148315429688	338.1278686523438	125.340087890625	318.2089233398438	330.957763671875	349.904052734375	114.1043243408203	255.3725128173828	168.1193237304688	28.76400566101075	260.4925231933594	221.5569915771485	12.5477695465088	316.3807983398438	-88.15840911865259	726.4719848632813	-3209.885498046875	
117	1.16	-46.91376113891609	1370.359130859375	186.7169952392578	-11.16383647918707	1153.887451171875	190.5284271240234	-190.789520263672	1295.984619140625	188.1297760009766	-247.8825683593751	1132.417602539063	211.0220794677735	-9.076216697692946	1302.52099609375	81.03036499023438	-26.6810913085938	983.0262451171875	173.3643798828125	-20.98583030700688	924.6737060546875	146.4090576171875	-14.73945999145512	922.0122680664063	196.4725341796875	-220.4557495117188	703.1693115234375	13.62001037597658	-223.5895385742188	638.3510131835938	17.59177017211915	-269.0967407226563	660.5191040039063	19.55503082275392	-312.6870727539063	364.3574829101563	49.42379379272463	-305.7959289550781	298.781494140625	46.63939666748049	-355.0715942382813	313.9990539550781	54.05757141113283	-347.3035278320313	17.35972595214842	128.8411712646485	-533.5867309570313	61.92622375488278	123.0423278808594	-498.6055297851563	34.36191558837888	69.91982269287112	-61.15289688110354	727.2724609375	363.5438537597656	-32.34944915771487	668.84619140625	354.0777587890625	-80.19443511962892	664.64306640625	366.770263671875	101.538589477539	383.9261474609375	338.0518798828125	155.547607421875	346.1288757324219	339.3645324707031	112.7760009765625	319.4415283203125	332.2905883789063	342.30224609375	124.0156555175781	256.3544921875	168.7494506835938	28.29153060913087	260.724853515625	222.139633178711	13.61471557617189	315.7104797363281	-88.16792297363305	726.4703979492188	-3209.91650390625	
